Coordinates
version=1
nRows=14
nColumns=24
inDegrees=yes

Units are S.I. units (second, meters, Newtons, ...)
Angles are in degrees.

endheader
time	pelvis_tilt	pelvis_list	pelvis_rotation	pelvis_tx	pelvis_ty	pelvis_tz	hip_flexion_r	hip_adduction_r	hip_rotation_r	knee_angle_r	ankle_angle_r	subtalar_angle_r	mtp_angle_r	hip_flexion_l	hip_adduction_l	hip_rotation_l	knee_angle_l	ankle_angle_l	subtalar_angle_l	mtp_angle_l	lumbar_extension	lumbar_bending	lumbar_rotation
      2.25000000	    -16.26545305	     -8.89243703	     10.68265879	      1.73975249	      0.91588002	      0.00149406	     41.44226429	     10.65347334	    -14.47374505	    -31.99104107	     17.52986605	     -6.35470767	      0.00000000	     39.09332006	    -10.46383640	    -12.75052663	    -81.66602136	     11.87774039	    -11.61896721	      0.00000000	    -18.67321216	     -2.51248459	      0.45250867
      2.25833333	    -16.33147025	     -8.93148414	     10.64393549	      1.73992213	      0.91573774	      0.00133548	     41.49546884	     10.67241241	    -14.45339643	    -31.99779653	     17.48077704	     -6.34008617	      0.00000000	     38.83342930	    -10.44127213	    -12.84466534	    -81.62760950	     11.83360735	    -11.62339680	      0.00000000	    -18.58897784	     -2.39356500	      0.43384333
      2.26666667	    -16.38731883	     -8.96981642	     10.62557772	      1.74010576	      0.91562686	      0.00112004	     41.53431168	     10.66167038	    -14.47367975	    -32.00555387	     17.40457573	     -6.32620501	      0.00000000	     38.56303791	    -10.41847507	    -12.93668706	    -81.58874970	     11.77905500	    -11.63403528	      0.00000000	    -18.51396666	     -2.25857902	      0.41265012
      2.27500000	    -16.43202183	     -9.00343096	     10.63277148	      1.74029763	      0.91555292	      0.00084170	     41.55811835	     10.61160201	    -14.54377977	    -32.01586042	     17.30356958	     -6.30526803	      0.00000000	     38.28713988	    -10.38635876	    -13.02263619	    -81.55165598	     11.72313450	    -11.65478286	      0.00000000	    -18.45022442	     -2.10642534	      0.38875676
      2.28333333	    -16.46049563	     -9.03563699	     10.67162893	      1.74050553	      0.91554897	      0.00047466	     41.55396377	     10.51795378	    -14.69199990	    -32.01291424	     17.18647852	     -6.25367619	      0.00000000	     38.00652135	    -10.33457857	    -13.08392686	    -81.51409205	     11.65860969	    -11.72322283	      0.00000000	    -18.42004224	     -1.91058869	      0.35800337
      2.29166667	    -16.45935171	     -9.08248919	     10.73432834	      1.74070495	      0.91555106	      0.00006201	     41.54308580	     10.39834203	    -14.93933849	    -32.05693429	     17.14694608	     -6.07757650	      0.00000000	     37.72744045	    -10.29658474	    -13.12058413	    -81.50360677	     11.55379202	    -11.89940972	      0.00000000	    -18.43617455	     -1.68577521	      0.32270702
      2.30000000	    -16.47704370	     -9.09364594	     10.79654758	      1.74091368	      0.91559275	     -0.00041095	     41.53901106	     10.22210558	    -15.21865914	    -32.11303192	     17.19791911	     -5.69642541	      0.00000000	     37.46441222	    -10.21785971	    -13.17404814	    -81.48794738	     11.45733426	    -12.09865657	      0.00000000	    -18.42205438	     -1.49301063	      0.29243748
      2.30833333	    -16.48778109	     -9.08444795	     10.81814517	      1.74118925	      0.91567271	     -0.00084247	     41.51341875	     10.05499181	    -15.46715164	    -32.17590800	     17.40753471	     -5.05285430	      0.00000000	     37.18687264	    -10.16342315	    -13.27629069	    -81.47742858	     11.32166329	    -12.31655853	      0.00000000	    -18.34785881	     -1.33812526	      0.26809318
      2.31666667	    -16.50076012	     -9.08292856	     10.85138086	      1.74146295	      0.91574212	     -0.00124631	     41.49579362	      9.90248069	    -15.71757411	    -32.22961994	     17.53075400	     -4.60311116	      0.00000000	     36.94277966	    -10.12629346	    -13.35734657	    -81.49578371	     11.24221866	    -12.46596926	      0.00000000	    -18.30928623	     -1.17356474	      0.24223750
      2.32500000	    -16.51492465	     -9.07671478	     10.87965092	      1.74174956	      0.91580539	     -0.00160168	     41.47942092	      9.77224828	    -15.92679302	    -32.27417840	     17.61779824	     -4.27130857	      0.00000000	     36.72036831	    -10.10581586	    -13.43992722	    -81.53291793	     11.16440681	    -12.61526345	      0.00000000	    -18.28556905	     -1.02083024	      0.21824459
      2.33333333	    -16.53632618	     -9.05382221	     10.86245583	      1.74207313	      0.91585005	     -0.00183443	     41.46775443	      9.70215873	    -15.99350474	    -32.29906255	     17.59349600	     -4.22242864	      0.00000000	     36.51284866	    -10.12582124	    -13.56743502	    -81.59588575	     11.11246703	    -12.62817480	      0.00000000	    -18.18621741	     -0.92502882	      0.20314798
      2.34166667	    -16.54500075	     -9.02494488	     10.84540697	      1.74243801	      0.91591758	     -0.00204748	     41.43701012	      9.65424000	    -16.00671857	    -32.31052457	     17.59863057	     -4.14749949	      0.00000000	     36.30990231	    -10.15483678	    -13.69080175	    -81.66637429	     11.03268725	    -12.68550083	      0.00000000	    -18.11139630	     -0.80530270	      0.18430443
      2.35000000	    -16.52315326	     -8.98140489	     10.80753646	      1.74285137	      0.91602673	     -0.00224090	     41.37457115	      9.62747590	    -15.97087717	    -32.33081403	     17.70502472	     -3.95908351	      0.00000000	     36.07916819	    -10.20129617	    -13.84651436	    -81.72649846	     10.79959673	    -13.05473169	      0.00000000	    -18.13301083	     -0.73674860	      0.17355661
      2.35833333	    -16.53539392	     -8.88335468	     10.78811164	      1.74324114	      0.91610583	     -0.00247504	     41.36179266	      9.55158926	    -15.86257464	    -32.38684229	     17.69141432	     -3.97205958	      0.00000000	     35.89652526	    -10.16926414	    -13.99145040	    -81.79059340	     10.60315168	    -13.33474254	      0.00000000	    -18.04824716	     -0.69871264	      0.16752971
